<?xml version="1.0" standalone="no"?>
<!DOCTYPE svg PUBLIC "-//W3C//DTD SVG 20010904//EN"
 "http://www.w3.org/TR/2001/REC-SVG-20010904/DTD/svg10.dtd">
<svg version="1.0" xmlns="http://www.w3.org/2000/svg"
 width="840.000000pt" height="883.000000pt" viewBox="0 0 840.000000 883.000000"
 preserveAspectRatio="xMidYMid meet">

<g transform="translate(0.000000,883.000000) scale(0.100000,-0.100000)"
fill="#ffffff" stroke="none">
<path d="M1305 8413 c-142 -17 -234 -42 -345 -94 -173 -81 -344 -234 -429
-384 -79 -138 -150 -366 -151 -481 0 -150 92 -442 186 -584 89 -136 299 -307
460 -376 35 -15 64 -33 64 -39 0 -7 -43 -80 -95 -163 -239 -379 -448 -810
-569 -1172 -146 -439 -226 -968 -226 -1495 0 -182 18 -475 40 -635 5 -41 17
-129 25 -195 9 -66 20 -140 26 -165 5 -25 18 -92 30 -150 47 -243 113 -468
172 -585 89 -177 277 -396 432 -500 381 -258 777 -460 1232 -629 285 -105 375
-130 778 -212 367 -75 953 -143 1300 -151 232 -5 772 30 1020 68 269 40 293
44 530 89 150 29 191 39 370 91 179 53 572 190 742 259 290 120 454 227 623
407 152 162 250 351 371 712 189 567 249 931 249 1516 0 417 -28 741 -90 1045
-92 451 -204 779 -396 1164 -91 181 -104 205 -201 367 -34 59 -63 112 -63 118
0 5 19 15 43 22 187 50 325 127 452 254 193 190 315 465 315 706 0 126 -50
329 -110 449 -73 144 -255 347 -376 419 -153 90 -333 135 -539 134 -184 0
-291 -25 -448 -104 -243 -123 -465 -379 -518 -596 -7 -27 -15 -52 -20 -57 -4
-4 -58 24 -121 63 -518 328 -1281 551 -1886 551 -224 0 -590 -51 -867 -121
-213 -54 -446 -129 -560 -179 -22 -10 -78 -34 -125 -55 -47 -20 -113 -52 -148
-72 -65 -35 -92 -37 -92 -6 -1 30 -58 182 -91 242 -137 246 -358 426 -599 490
-116 30 -297 46 -395 34z m197 -187 c262 -51 478 -227 571 -465 34 -89 57
-188 57 -253 l0 -48 -117 -86 c-213 -157 -325 -255 -530 -461 l-202 -203 -70
15 c-293 61 -521 284 -591 575 -87 367 116 753 466 886 143 54 276 67 416 40z
m5830 -240 c368 -71 628 -382 628 -751 0 -210 -75 -389 -225 -540 -119 -119
-236 -181 -402 -213 l-85 -16 -32 35 c-17 20 -78 93 -134 163 -57 69 -165 188
-240 264 -117 117 -189 183 -384 347 -23 19 -27 28 -22 57 17 94 38 161 78
243 149 303 489 474 818 411z m-5059 -1796 c226 -33 448 -213 575 -465 134
-269 188 -649 142 -1015 -34 -269 -130 -550 -266 -776 -237 -396 -539 -605
-874 -606 -106 0 -174 15 -270 59 -121 56 -277 199 -349 321 -321 540 -269
1374 122 1962 194 292 420 461 687 515 80 16 145 18 233 5z m3962 -105 c173
-33 313 -107 457 -243 217 -205 388 -499 481 -832 64 -225 82 -378 74 -623 -9
-277 -52 -466 -157 -683 -103 -212 -259 -361 -464 -441 -66 -26 -81 -28 -206
-28 -155 1 -228 18 -363 86 -232 116 -441 354 -593 673 -106 225 -167 446
-190 696 -25 275 -6 474 68 725 60 203 148 355 276 477 142 135 297 206 454
207 47 1 121 -6 163 -14z m-2119 -2359 c179 -17 301 -53 477 -143 122 -62 295
-165 367 -219 133 -101 469 -422 568 -543 42 -52 90 -108 106 -125 129 -136
239 -342 294 -550 25 -95 26 -115 27 -326 l0 -225 -36 -76 c-58 -123 -135
-227 -248 -339 -58 -58 -149 -135 -201 -172 -188 -134 -549 -293 -776 -341
-38 -9 -102 -22 -142 -31 -303 -66 -705 -68 -1049 -5 -539 97 -1018 356 -1263
681 -180 239 -257 496 -224 748 23 176 63 275 187 470 188 293 527 677 742
837 197 148 439 277 575 308 41 9 87 21 102 27 38 14 198 35 278 37 36 0 133
-6 216 -13z"/>
<path d="M2241 6141 c-12 -8 -11 -19 4 -73 28 -100 27 -379 -2 -518 -31 -146
-53 -218 -103 -343 l-43 -108 36 -72 c50 -101 63 -188 42 -291 -44 -214 -187
-271 -269 -108 -32 65 -50 161 -42 226 5 43 1 66 -21 127 -26 70 -28 83 -27
239 1 124 6 192 22 275 32 165 149 484 203 554 25 31 24 41 -4 41 -68 0 -298
-208 -400 -361 -182 -275 -303 -615 -347 -979 -15 -127 -12 -406 6 -527 44
-303 174 -558 338 -667 119 -79 251 -96 393 -51 63 20 173 75 173 87 0 2 -20
3 -45 3 -61 1 -93 27 -135 109 -30 61 -35 80 -38 164 -7 145 25 255 95 332
104 116 230 47 272 -148 24 -114 9 -220 -47 -334 -45 -92 -33 -89 63 14 246
265 427 713 476 1177 16 158 7 425 -20 563 -78 394 -267 635 -526 672 -22 4
-46 2 -54 -3z"/>
<path d="M5975 6013 c-39 -10 -40 -22 -3 -61 77 -81 158 -229 158 -289 0 -21
14 -81 30 -133 47 -149 71 -290 76 -444 4 -138 8 -155 40 -156 20 0 84 -70
108 -119 55 -107 75 -270 47 -370 -15 -53 -69 -111 -103 -111 -97 0 -198 198
-198 389 l0 76 -47 35 c-94 70 -188 244 -257 476 -19 64 -41 123 -49 132 -8
10 -17 25 -20 35 -12 32 -22 170 -21 270 1 53 -2 97 -7 97 -12 0 -61 -75 -102
-155 -41 -82 -79 -202 -104 -330 -25 -128 -25 -514 0 -670 52 -331 176 -677
323 -903 75 -115 236 -276 327 -327 210 -116 419 -99 565 45 36 37 34 42 -21
60 -74 23 -127 88 -167 206 -77 220 -18 490 111 510 109 16 222 -169 236 -389
3 -48 10 -90 14 -93 23 -14 72 155 95 326 34 255 0 632 -81 913 -137 470 -392
828 -678 950 -60 25 -87 31 -162 33 -49 2 -99 0 -110 -3z"/>
<path d="M3822 3480 c-94 -25 -163 -63 -212 -116 -217 -236 229 -476 637 -343
288 94 282 344 -11 447 -100 35 -306 41 -414 12z"/>
</g>
</svg>
